<svg xmlns="http://www.w3.org/2000/svg" xmlns:xlink="http://www.w3.org/1999/xlink" width="540" height="376" viewBox="0 0 540 376">
    <defs>
        <linearGradient id="b" x1="2.836%" x2="57.995%" y1="50%" y2="40.451%">
            <stop offset="0%" stop-color="#D6DCE7" stop-opacity="0"/>
            <stop offset="100%" stop-color="#D6DCE7" stop-opacity=".475"/>
        </linearGradient>
        <circle id="a" cx="158" cy="158" r="158"/>
        <linearGradient id="d" x1="47.334%" x2="68.198%" y1="69.816%" y2="125.062%">
            <stop offset="0%" stop-color="#F1F4F9"/>
            <stop offset="100%" stop-color="#E5EAEF"/>
        </linearGradient>
    </defs>
    <g fill="none" fill-rule="evenodd">
        <g transform="translate(94 9)">
            <g transform="rotate(-80 157.888 132.329)">
                <g transform="translate(97.527 .304)">
                    <circle cx="9" cy="36" r="9" stroke="#F01877"/>
                    <circle cx="36" cy="20" r="3" stroke="#D6DCE7"/>
                    <circle cx="4.5" cy="4.5" r="4.5" stroke="#D6DCE7"/>
                    <circle cx="45.5" cy="3.5" r="1.5" stroke="#576C8C"/>
                </g>
                <circle cx="207.5" cy="35.5" r="1.5" stroke="#D6DCE7"/>
                <circle cx="232.5" cy="58.5" r="2.5" stroke="#576C8C"/>
                <circle cx="246.5" cy="13.5" r="1.5" stroke="#F01877"/>
                <circle cx="265.5" cy="120.5" r="2.5" stroke="#576C8C"/>
                <circle cx="58.808" cy="333.894" r="4.5" stroke="#F01877" transform="rotate(14 58.808 333.894)"/>
                <circle cx="14.057" cy="329.436" r="11" stroke="#576C8C" transform="rotate(14 14.057 329.436)"/>
                <circle cx="113.519" cy="364.54" r="4" stroke="#D6DCE7" transform="rotate(14 113.52 364.54)"/>
                <circle cx="53.371" cy="366.034" r="2" stroke="#D6DCE7" transform="rotate(14 53.371 366.034)"/>
            </g>
            <g stroke="#D6DCE7">
                <path d="M122 103.093L223.93 1.163M122 113.093l101.93-101.93M122 123.093l101.93-101.93"/>
            </g>
            <g transform="translate(27 34.163)">
                <mask id="c" fill="#fff">
                    <use xlink:href="#a"/>
                </mask>
                <use fill="url(#b)" xlink:href="#a"/>
                <g mask="url(#c)">
                    <g transform="rotate(10 -4.16 435.321)">
                        <ellipse cx="120.6" cy="148" fill="#EBEEF3" rx="41" ry="33" transform="rotate(-12 120.6 148)"/>
                        <path fill="#FFF" d="M108.013 292.13c10.145-10.552 11.383-18.554 44.714-36.415 17.029-10.755 32.397-19.989 46.106-27.7L99.6 169.95c.748-12.664.472-18.996-.83-18.996-1.952 0-.952-14.194 1-30.652 1.666-1.835 6.668-20.424 6.668-38.283 0-11.906-4.367-17.698-13.101-17.375l-1.197-1.146c-7.886 16.268-11.83 26.71-11.83 31.324-2.718 7.173-15.514 38.116-21.756 43.647-6.24 5.532-7.764 9.404-12.291 37.481-4.527 28.078.197 32.095-7.01 51.215C32.047 246.284 12.934 272.751 0 292.13c21.804 4.034 68.092 10.439 108.013 0z"/>
                        <path fill="#172E59" d="M122.6 0h77c9.941 0 18 8.059 18 18v196c0 9.941-8.059 18-18 18h-77c-9.941 0-18-8.059-18-18V18c0-9.941 8.059-18 18-18z"/>
                        <path fill="#FFF" d="M99.6 104c4.418 0 7-8.059 7-18s-2.582-18-7-18-8 8.059-8 18 3.582 18 8 18z"/>
                        <ellipse cx="87.6" cy="202" fill="#FFF" rx="22" ry="60"/>
                    </g>
                </g>
                <rect width="113" height="56" x="173" y="35" fill="#172E59" rx="18" transform="rotate(10 229.5 63)"/>
                <path fill="url(#d)" d="M177.1 41h74c6.627 0 12 5.373 12 12v193c0 6.627-5.373 12-12 12h-74c-6.627 0-12-5.373-12-12V53c0-6.627 5.373-12 12-12z" transform="rotate(10 214.1 149.5)"/>
                <g fill="#FFF">
                    <g transform="rotate(10 -460.004 1548.683)">
                        <path d="M17 2.171C24.447-1.306 29.888-.607 33.325 4.27c5.154 7.313-3.995 17.447-5.889 19.434-1.263 1.324-4.896 3.799-10.9 7.423L17 2.171zM21.024 58.977c6.996-1.615 11.205-4.809 9.528-12.074-1.677-7.264-8.606-15.849-15.602-14.234-6.995 1.615-11.307 8.814-9.63 16.078 1.678 7.265 8.708 11.845 15.704 10.23z"/>
                        <ellipse cx="17.5" cy="76.936" rx="13.5" ry="14.5" transform="rotate(-14 17.5 76.936)"/>
                        <path d="M14.5 115.436c8.56 0 15.5-5.15 15.5-11.5 0-6.352-6.94-11.5-15.5-11.5-8.56 0-12.5 5.148-12.5 11.5 0 6.35 3.94 11.5 12.5 11.5z"/>
                    </g>
                    <path d="M258.475 222.657l-2.37 13.434c10.112-7.436 16.002-15.883 17.67-25.34-5.094-4.003-9.492-4.016-13.194-.041l-2.106 11.947z"/>
                </g>
            </g>
            <circle cx="241" cy="183.163" r="32" fill="#F01877"/>
            <path fill="#FFF" fill-rule="nonzero" d="M247.548 168.792l-6.734 6.496v-12.992zM234.08 197.958l6.734 6.497v-12.993z"/>
            <path stroke="#FFF" stroke-width="2.663" d="M239.468 197.958h1.346c8.183 0 14.815-6.528 14.815-14.583 0-4.69-2.25-8.861-5.743-11.531M242.161 168.792h-1.347c-8.182 0-14.814 6.528-14.814 14.583 0 4.701 2.26 8.885 5.77 11.55"/>
            <g transform="translate(74.446 315.609)">
                <circle cx="32.207" cy="15.208" r="3" stroke="#F01877" transform="rotate(6 32.207 15.208)"/>
                <circle cx="5.5" cy="5.5" r="4.5" stroke="#D6DCE7" transform="rotate(6 5.5 5.5)"/>
                <circle cx="46.38" cy="8.791" r="1.5" stroke="#576C8C" transform="rotate(6 46.38 8.791)"/>
            </g>
        </g>
        <path fill="#172E59" fill-opacity=".148" d="M286.408 267.766l25.552 4.505-.422 2.395-25.552-4.505zM284.977 273.701l71.864 12.672-.845 4.79-71.864-12.672zM283.625 280.67l71.864 12.672-.174.985-71.864-12.672z"/>
    </g>
</svg>
