<svg xmlns="http://www.w3.org/2000/svg" xmlns:xlink="http://www.w3.org/1999/xlink" width="540" height="376" viewBox="0 0 540 376">
    <defs>
        <linearGradient id="a" x1="29.786%" x2="81.497%" y1="48.455%" y2="51.116%">
            <stop offset="0%" stop-color="#D6DCE7" stop-opacity="0"/>
            <stop offset="100%" stop-color="#D6DCE7" stop-opacity=".475"/>
        </linearGradient>
        <linearGradient id="b" x1="59.492%" x2="54.14%" y1="32.832%" y2="98.735%">
            <stop offset="0%" stop-color="#D6DCE7"/>
            <stop offset="56.384%" stop-color="#A0B0CE"/>
            <stop offset="100%" stop-color="#748CBA"/>
        </linearGradient>
        <linearGradient id="c" x1="-60.354%" x2="121.264%" y1="43.348%" y2="54.57%">
            <stop offset="0%" stop-color="#90A5C0"/>
            <stop offset="100%" stop-color="#FBFBFC"/>
        </linearGradient>
        <path id="e" d="M6.6 0h83.243a4.4 4.4 0 0 1 4.14 2.908l7.94 22.037a4.4 4.4 0 0 0 4.14 2.908H183.7a6.6 6.6 0 0 1 6.6 6.6V117.7a6.6 6.6 0 0 1-6.6 6.6H6.6a6.6 6.6 0 0 1-6.6-6.6V6.6A6.6 6.6 0 0 1 6.6 0z"/>
        <filter id="d" width="146.2%" height="170.8%" x="-23.1%" y="-24.9%" filterUnits="objectBoundingBox">
            <feOffset dy="13" in="SourceAlpha" result="shadowOffsetOuter1"/>
            <feGaussianBlur in="shadowOffsetOuter1" result="shadowBlurOuter1" stdDeviation="12.5"/>
            <feColorMatrix in="shadowBlurOuter1" values="0 0 0 0 0.341714419 0 0 0 0 0.422780074 0 0 0 0 0.548431839 0 0 0 0.229977054 0"/>
        </filter>
        <rect id="g" width="190.3" height="33" x=".55" y="135.3" rx="6.6"/>
        <filter id="f" width="146.2%" height="366.7%" x="-23.1%" y="-93.9%" filterUnits="objectBoundingBox">
            <feOffset dy="13" in="SourceAlpha" result="shadowOffsetOuter1"/>
            <feGaussianBlur in="shadowOffsetOuter1" result="shadowBlurOuter1" stdDeviation="12.5"/>
            <feColorMatrix in="shadowBlurOuter1" values="0 0 0 0 0.341714419 0 0 0 0 0.422780074 0 0 0 0 0.548431839 0 0 0 0.229977054 0"/>
        </filter>
        <rect id="i" width="190.3" height="33" x=".55" y="179.3" rx="6.6"/>
        <filter id="h" width="146.2%" height="366.7%" x="-23.1%" y="-93.9%" filterUnits="objectBoundingBox">
            <feOffset dy="13" in="SourceAlpha" result="shadowOffsetOuter1"/>
            <feGaussianBlur in="shadowOffsetOuter1" result="shadowBlurOuter1" stdDeviation="12.5"/>
            <feColorMatrix in="shadowBlurOuter1" values="0 0 0 0 0.341714419 0 0 0 0 0.422780074 0 0 0 0 0.548431839 0 0 0 0.229977054 0"/>
        </filter>
    </defs>
    <g fill="none" fill-rule="evenodd">
        <path fill="url(#a)" d="M214.5 245c115.151 0 208.5-20.147 208.5-45s-93.349-45-208.5-45S6 175.147 6 200s93.349 45 208.5 45z" transform="translate(59 66)"/>
        <path fill="#3E567B" d="M325.44 210.783l-37.856 5.892s52.988 40.714 65.668 40.714c14.014 0 60.953-22.703 60.953-22.703l-36.831-24.716-51.934.813z"/>
        <path fill="#3E567B" d="M327.06 214.03l-45.45 5.796s15.186 21.098 27.867 21.098c14.014 0 12.505-7.72 12.505-7.72l57.012-19.988-51.934.813z"/>
        <path d="M385.804 137.399c-3.835 3.878-10.922 33.414-12.738 36.574l20.7 29.942s-4.338 7.312-4.58 9.1c-1.691 12.496 5.806 14.221 9.703 12.616 6.777-2.791 17.205-19.97 16.062-22.985-7.494-19.746-14.848-38.527-23.523-57.229-1.176-2.536-3.25-8.325-4.977-8.325-.223 0-.44.096-.647.307m-12.738 36.574l-.432-.626c-.003.97.15 1.115.432.626"/>
        <path fill="#172E59" d="M384.244 136.72c-3.835 3.879-9.362 34.093-11.178 37.253l20.7 29.942s-4.338 7.312-4.58 9.1c-1.691 12.496 5.806 14.221 9.703 12.616 6.777-2.791 17.205-19.97 16.062-22.985-7.494-19.746-14.848-38.527-23.523-57.229-1.176-2.536-4.81-9.003-6.537-9.003-.223 0-.44.096-.647.307m-11.178 37.252l-.432-.626c-.003.97.15 1.115.432.626"/>
        <path d="M314.477 142.072c-8.305 18.858-23.238 32.487-27.502 53.115-1.968 9.517 8.902 22.69 16.44 22.112 4.497-.346 8.388-5.398 8.853-7.02 2.034-7.097-2.557-13.461-2.557-13.461l23.667-23.957c-1.55-4.124-7.382-35.253-11.34-38.952a.93.93 0 0 0-.658-.258c-1.879 0-5.26 4.685-6.903 8.421zm18.901 30.79c.254.677.394.625.39-.395l-.39.394z"/>
        <path fill="#172E59" d="M286.975 195.187c-1.968 9.517 8.902 22.69 16.44 22.112 4.497-.346 8.388-5.398 8.853-7.02 2.034-7.097-2.557-13.461-2.557-13.461l23.667-23.957c-1.55-4.124-6.572-34.441-10.53-38.14a.93.93 0 0 0-.658-.258c-1.879 0-6.07 3.873-7.713 7.61-8.305 18.857-23.238 32.486-27.502 53.114zm46.403-22.326c.254.678.394.626.39-.394l-.39.394z"/>
        <path fill="#FFF" d="M352.635 249.923l40.84 9.168-.161 13.724s-19.27-.802-25.093-1.348c-3.702-.349-21.117-3.016-21.117-3.016l5.53-18.528z"/>
        <path fill="#FFF" d="M351.64 247.277l-32.939 12.322 1.387 12.479s15.759-1.443 20.493-2.155c3.01-.453 17.075-3.525 17.075-3.525l-6.016-19.121z"/>
        <path fill="#D6DCE7" d="M386.008 259.082s1.895.25 6.278-.882c4.383-1.132-.626-3.226 1.507-3.114 5.485.29 12.78 6.283 16.249 10.636 1.681 2.11 3.213 8.076-3.008 8.025-11.865-.337-20.93-1.214-20.93-1.214l.986-3.156c.58-1.853.648-3.821.2-5.709l-1.282-4.586zM310.929 274.23c4.01-.867 15.107-2.619 15.107-2.619-3.404-2.186-3.438-5.37-2.536-9.226l.764-3.267-7.555-2.976s-6.281 2.076-8.865 6.13c-5.32 8.347-4.696 10.641-2.253 11.703 1.092.474 4.169.509 5.338.255z"/>
        <path d="M337.338 129.044c-2.973 1.3-6.109 3.951-6.109 3.951 2.817 4.183 16.276 15.28 23.778 15.003 6.6-.245 21.009-14.775 21.136-15.33 0 0-4.885-2.979-6.67-3.657-7.346-2.798-12.307-4.11-16.86-4.11-4.78 0-9.11 1.448-15.275 4.143"/>
        <path d="M337.338 129.044c-2.973 1.3-6.109 3.951-6.109 3.951 2.817 4.183 16.276 15.28 23.778 15.003 6.6-.245 21.009-14.775 21.136-15.33 0 0-4.885-2.979-6.67-3.657-7.346-2.798-12.307-4.11-16.86-4.11-4.78 0-9.11 1.448-15.275 4.143"/>
        <path d="M345.788 109.982c-.434-.005-1.518 8.391-1.522 8.81l-.607 14.419c-.043 4.659 4.301 8.37 9.117 8.411 4.814.042 9.43-3.606 9.471-8.264l-1.03-28.488a.771.771 0 0 0-.78-.767l-14.649 5.879z"/>
        <path fill="#FFF" d="M345.788 109.982c-.434-.005-1.518 8.391-1.522 8.81l-.607 14.419c-.043 4.659 4.301 8.37 9.117 8.411 4.814.042 9.43-3.606 9.471-8.264l-1.03-28.488a.771.771 0 0 0-.78-.767l-14.649 5.879z"/>
        <path fill="#172E59" d="M319.409 172.473c1.009 15.366-.793 32.845.54 40.49 1.764 10.124 43.19 9.044 52.318 7.133 3.178-.664 8.116-1.55 9.932-4.28.667-1.002.299-13.527 3.187-31.94 2.584-16.471 5.223-39.493 2.36-44.503-3.291-5.76-18.971-11.775-18.971-11.775-6.646 7.556-11.946 11.307-15.899 11.252-6.008 1.12-9.702-2.755-11.081-11.626 0 0-20.531 5.417-22.904 9.462-2.228 3.8.062 28.838.518 35.787z"/>
        <path fill="#F01877" d="M366.067 164.887c-6.175 5.893-12.305 6.164-12.305 6.164s10.029-21.95 8.355-42.413c-.057-.693-.2-3.621-.053-4.264 1.105-4.88 2.899-9.201 5.393-6.355.595.68 3.015 5.011 3.444 6.44 7.693 25.628 1.341 34.536-4.834 40.428zM370.353 83.376c6.338 6.502 8.007 21.332 1.96 27.774-5.23 5.572-25.187 6.199-26.828 5.961-17.405-2.517-15.372-20.045-11.527-27.12 6.466-11.895 24.57-18.747 36.395-6.615"/>
        <path d="M371.429 106.814c-2.198.094-3.9 1.912-3.802 4.06.098 2.147 1.96 3.81 4.157 3.716 2.198-.094 3.9-1.912 3.802-4.06-.095-2.088-1.86-3.72-3.98-3.72-.058 0-.118.001-.177.004"/>
        <path fill="#FFF" d="M371.429 106.814c-2.198.094-3.9 1.912-3.802 4.06.098 2.147 1.96 3.81 4.157 3.716 2.198-.094 3.9-1.912 3.802-4.06-.095-2.088-1.86-3.72-3.98-3.72-.058 0-.118.001-.177.004"/>
        <path d="M331.093 110.702c0 2.15 1.784 3.892 3.984 3.892s3.983-1.742 3.983-3.892-1.783-3.892-3.983-3.892-3.984 1.743-3.984 3.892"/>
        <path fill="#FFF" d="M331.093 110.702c0 2.15 1.784 3.892 3.984 3.892s3.983-1.742 3.983-3.892-1.783-3.892-3.983-3.892-3.984 1.743-3.984 3.892"/>
        <path fill="#FFF" d="M370.825 110.702c0 12.83-7.75 23.23-17.311 23.23-9.56 0-17.311-10.4-17.311-23.23s7.75-23.23 17.31-23.23c9.562 0 17.312 10.4 17.312 23.23"/>
        <path fill="#F01877" d="M363.26 88.853c11.354 4.583 10.678 16.387 10.023 19.276-.598 2.638-1.76 4.228-2.465 4.172-7.995-.643-27.883-11.658-27.883-11.658s-10.902 7.93-3.155 37.277c0 0-6.411-10.855-6.74-25.781-.414-18.89 13.744-29.938 30.22-23.286"/>
        <path fill="#FFF" d="M369.404 212.697c.135-.087 3.151-2.46 5.337-2.475 4.371-.031 8.862 3.22 13.364 2.011 1.505-.404 4.043-.15 5.455.494l2.926 1.339c2.266 1.035 3.008 3.847 1.47 5.76-1.587 1.972-3.822 3.949-6.418 3.972-2.639.024-6.288-1.744-8.926-1.774-1.545-.017-4.03 2.25-5.489 2.743-.489.165-1.536.534-2.033.39-.206-.059-.642-.553-.642-.553s-1.606 1.097-2.238 1.173c-.592.071-2.31-.572-2.31-.572l6.436-7.285-4.532 2.153s-2.438 2.193-3.468 2.47c-1.185.319-1.849-.625-1.849-.625l6.842-7.968s-5.314 2.523-6.996 2.182c-.748-.15-1.793-.99-1.793-.99l4.864-2.445zM324.352 196.992c-.164-.01-4-.606-5.902.438-3.801 2.088-6.01 7.076-10.532 8.208-1.512.38-3.58 1.827-4.468 3.069l-1.843 2.574a3.755 3.755 0 0 0 1.706 5.7c2.392.94 5.35 1.57 7.61.334 2.297-1.256 4.542-4.553 6.812-5.855 1.328-.763 4.653-.003 6.17-.28.51-.094 1.608-.282 1.964-.646.147-.151.27-.79.27-.79s1.958.172 2.544-.068c.548-.225 1.705-1.613 1.705-1.613l-9.34-3.195 5.037-.328s3.245.72 4.281.461c1.19-.297 1.278-1.435 1.278-1.435l-10.043-3.59s5.906-.386 7.186-1.496c.57-.492 1.04-1.725 1.04-1.725l-5.475.237z"/>
        <path d="M312.104 190.456l-.033 42.677 72.846 2.922 7.994-43.203c.231-1.247-.853-2.387-2.309-2.426l-76.007-2.062-.077-.001c-1.327 0-2.413.933-2.414 2.093"/>
        <path fill="#FFF" d="M310.545 234.024l74.851 2.03 8.324-44.813c.24-1.293-.889-2.475-2.404-2.515l-80.83-2.982h-.08c-1.382 0-2.514.967-2.514 2.171l2.653 46.109z"/>
        <path fill="url(#b)" d="M41.545 158.024l74.851 2.03 8.324-44.813c.24-1.293-.889-2.475-2.404-2.515l-80.83-2.982h-.08c-1.382 0-2.514.967-2.514 2.171l2.653 46.109z" transform="translate(269 77)"/>
        <path fill="#576C8C" d="M274.272 242.42c7.37 6.935 38.441 16.595 38.441 16.595 30.91 8.646 49.82 12.94 56.727 12.878 8.908-3.84 6.84-9.35 6.21-13.434-24.981-12.443-48.006-24.68-69.074-36.711 0 0-15.036-6.265-20.351-5.824-5.043.42-14.311 6.904-15.99 11.21-1.68 4.305 1.023 12.448 4.037 15.285z"/>
        <path fill="#576C8C" d="M340.085 256.75s45.16-23.07 65.783-38.134c4.602-3.362 19.757.948 23.115 5.719 3.078 4.372.692 16.863-2.719 20.998-11.423 13.845-75.01 21.92-75.01 21.92l-11.169-10.504z"/>
        <path fill="#FFF" d="M348.793 205.108a.323.323 0 0 1-.182.408l-2.237.855a4.333 4.333 0 0 0-2.32 2.133l-3.74 7.527a.323.323 0 0 0 .166.446l7.525 2.877 3.2 1.277-.808-2.33a.323.323 0 0 1 .182-.408l2.237-.855a4.332 4.332 0 0 0 2.32-2.133l3.74-7.526a.323.323 0 0 0-.166-.446l-7.525-2.877-3.2-1.277.808 2.33zm3.803 2.75a.298.298 0 0 1 .37-.144l1.976.755a.326.326 0 0 1 .166.446l-2.4 4.832c-.141.283-.378.5-.664.61l-2.375.907a.3.3 0 0 1-.39-.19l-.96-2.767-1.725 3.244a.299.299 0 0 1-.37.145l-1.976-.755a.326.326 0 0 1-.166-.447l2.4-4.831c.141-.283.378-.5.664-.61l2.375-.908a.301.301 0 0 1 .39.191l.96 2.766 1.725-3.244z"/>
        <g transform="translate(59 66)">
            <path fill="url(#c)" d="M86.9 6.6h80.566a8.8 8.8 0 0 1 8.536 6.66L181.5 35.2H86.9V6.6z" opacity=".401"/>
            <use fill="#000" filter="url(#d)" xlink:href="#e"/>
            <use fill="#FFF" xlink:href="#e"/>
            <path fill="#172E59" fill-rule="nonzero" d="M24.257 13.143h.357V22h-1.03v-6.244l-2.785 3.776h-.37l-2.798-3.802V22H16.6v-8.857h.37l3.63 5.029 3.656-5.03zm4.924 2.283c1.465 0 2.508.885 2.508 2.614V22h-.95v-.832c-.463.62-1.215.977-2.165.977-1.294 0-2.244-.686-2.244-1.808 0-1.083.91-1.795 2.31-1.795h2.032v-.555c0-1.082-.607-1.623-1.557-1.623-.805 0-1.373.382-1.875 1.03l-.673-.555c.607-.977 1.584-1.413 2.614-1.413zm-.475 5.874c1.056 0 1.966-.765 1.966-1.768v-.159h-1.914c-.897 0-1.386.304-1.386.911 0 .686.62 1.016 1.334 1.016zm8.078-5.781c.211 0 .343.026.475.053v.897h-.383c-1.042 0-2.02.66-2.02 1.888V22H33.84v-6.428h.95v.91c.476-.633 1.228-.963 1.994-.963zM38.619 22v-9.9h1.016V22H38.62zm2.35-3.604L44.003 22h-1.306l-2.957-3.617 2.68-2.811h1.333l-2.786 2.824zm9.82-.066c0 .344-.053.634-.079.766h-5.082c.132 1.28 1.096 2.112 2.363 2.112.805 0 1.439-.343 1.967-.871l.594.686c-.647.687-1.518 1.122-2.574 1.122-1.94 0-3.406-1.465-3.406-3.353 0-1.874 1.439-3.366 3.287-3.366 1.65 0 2.93 1.188 2.93 2.904zm-2.957-1.98c-1.082 0-1.94.74-2.164 1.848h4.078c-.013-1.188-.897-1.848-1.914-1.848zm7.392 4.871c.251 0 .528-.026.858-.079V22c-.33.08-.66.145-1.069.145-1.267 0-2.165-.62-2.165-2.085v-3.578h-1.082v-.91h1.082v-1.756h1.017v1.756h2.006v.91h-2.006v3.512c0 .963.554 1.227 1.36 1.227zm2.891-7.365c-.422 0-.765-.317-.765-.74 0-.409.343-.739.765-.739.41 0 .753.33.753.74a.74.74 0 0 1-.753.739zM57.6 22v-6.428h1.017V22H57.6zm6.178-6.574c1.518 0 2.39 1.043 2.39 2.535V22H65.15v-3.92c0-1.017-.607-1.716-1.597-1.716s-1.69.712-1.69 1.716V22h-1.016v-6.428h.95v.686c.462-.515 1.148-.832 1.98-.832zm9.755.146h.963v5.808c0 1.98-1.254 3.141-3.128 3.141a4.279 4.279 0 0 1-3.023-1.24l.594-.713c.62.54 1.347 1.016 2.403 1.016 1.306 0 2.138-.726 2.138-2.152v-.567c-.515.673-1.426 1.069-2.39 1.069-1.808 0-3.154-1.373-3.154-3.247 0-1.861 1.346-3.26 3.155-3.26 1.016 0 1.94.435 2.442 1.174v-1.03zm-2.284 5.425c1.122 0 2.244-.7 2.244-2.31s-1.135-2.297-2.244-2.297c-1.307 0-2.283.95-2.283 2.31s.976 2.297 2.283 2.297z"/>
            <use fill="#000" filter="url(#f)" xlink:href="#g"/>
            <use fill="#FFF" xlink:href="#g"/>
            <path fill="#172E59" fill-rule="nonzero" d="M19.149 155.245c-1.386 0-2.535-.726-3.208-1.874l.766-.568c.528.805 1.307 1.492 2.429 1.492 1.03 0 1.755-.568 1.755-1.452 0-.805-.594-1.122-1.452-1.531l-.977-.462c-.91-.436-1.966-1.043-1.966-2.337 0-1.386 1.214-2.27 2.626-2.27 1.188 0 2.192.62 2.733 1.478l-.753.568c-.475-.7-1.2-1.096-1.993-1.096-.805 0-1.544.41-1.544 1.267 0 .792.607 1.083 1.399 1.466l.964.462c1.267.607 2.032 1.24 2.032 2.428 0 1.466-1.2 2.43-2.811 2.43zm7.049-6.719c1.465 0 2.508.885 2.508 2.614v3.96h-.95v-.832c-.463.62-1.215.977-2.166.977-1.293 0-2.244-.686-2.244-1.808 0-1.083.911-1.795 2.31-1.795h2.033v-.555c0-1.082-.607-1.623-1.557-1.623-.806 0-1.373.382-1.875 1.03l-.673-.555c.607-.977 1.584-1.413 2.614-1.413zm-.476 5.874c1.056 0 1.967-.765 1.967-1.768v-.159h-1.914c-.897 0-1.386.304-1.386.911 0 .686.62 1.016 1.333 1.016zm5.135.7v-9.9h1.017v9.9h-1.017zm9.003-3.67c0 .344-.053.634-.08.766h-5.082c.132 1.28 1.096 2.112 2.363 2.112.805 0 1.439-.343 1.967-.871l.594.686c-.647.687-1.518 1.122-2.574 1.122-1.94 0-3.406-1.465-3.406-3.353 0-1.874 1.44-3.366 3.287-3.366 1.65 0 2.93 1.188 2.93 2.904zm-2.957-1.98c-1.083 0-1.94.74-2.165 1.848h4.079c-.013-1.188-.898-1.848-1.914-1.848zm6.64 5.795a3.096 3.096 0 0 1-2.509-1.254l.647-.673c.528.554 1.07.99 1.848.99.673 0 1.228-.33 1.228-.91 0-.555-.475-.766-1.122-1.03l-.62-.264c-.977-.41-1.598-.872-1.598-1.782 0-1.162.99-1.796 2.165-1.796.924 0 1.65.396 2.152 1.017l-.62.633c-.423-.435-.978-.712-1.585-.712s-1.069.277-1.069.805c0 .435.33.633 1.043.937l.594.25c1.148.49 1.703.99 1.703 1.902 0 1.254-1.07 1.887-2.258 1.887zM55.761 62.92v-8.712h1.03v7.788h4.131v.924h-5.16zm7.115-8.144c-.422 0-.766-.317-.766-.74 0-.409.344-.739.766-.739.41 0 .752.33.752.74a.74.74 0 0 1-.752.739zm-.515 8.144v-6.428h1.017v6.428H62.36zm3.247 0v-9.9h1.017v9.9h-1.017zm7.815-6.428h1.082l-3.168 7.326c-.501 1.148-1.201 1.623-2.178 1.623-.317 0-.686-.053-.99-.132v-.858c.304.04.555.066.779.066.62 0 1.096-.211 1.452-1.03l.343-.765-2.666-6.23h1.095l2.126 5.121 2.125-5.121zm10.969 1.636c1.082.317 1.703 1.162 1.703 2.284 0 1.439-1.03 2.508-2.759 2.508h-3.59v-8.712h2.996c1.544 0 2.482.937 2.482 2.204 0 .726-.304 1.32-.832 1.716zm-1.756-2.996h-1.86v2.706h1.86c1.017 0 1.532-.554 1.532-1.36 0-.805-.502-1.346-1.532-1.346zm.594 6.864c1.175 0 1.809-.66 1.809-1.61 0-.938-.634-1.61-1.809-1.61h-2.455v3.22h2.455zm7.511-5.557c.211 0 .343.026.475.053v.897h-.382c-1.043 0-2.02.66-2.02 1.888v3.643h-1.016v-6.428h.95v.91c.475-.633 1.228-.963 1.993-.963zm4.594 6.613a3.332 3.332 0 0 1-3.353-3.353c0-1.887 1.478-3.353 3.366-3.353a3.335 3.335 0 0 1 3.366 3.353c0 1.861-1.492 3.353-3.38 3.353zm0-.937c1.32 0 2.336-1.043 2.336-2.403 0-1.386-1.003-2.428-2.323-2.428-1.333 0-2.323 1.042-2.323 2.428 0 1.373.99 2.403 2.31 2.403zm13.57-5.623h1.082l-2.706 6.573h-.37l-2.191-4.857-2.178 4.857h-.356l-2.733-6.573h1.083l1.86 4.765 2.14-4.91h.382l2.165 4.87 1.821-4.725zm5.49-.146c1.519 0 2.39 1.043 2.39 2.535v4.039h-1.017V59c0-1.017-.607-1.716-1.597-1.716s-1.69.712-1.69 1.716v3.92h-1.016v-6.428h.95v.686c.463-.515 1.149-.832 1.98-.832z"/>
            <rect width="26.4" height="26.4" x="15.84" y="45.98" fill="#F5F6F8" rx="3.52"/>
            <path fill="#172E59" fill-rule="nonzero" d="M60.408 93.328c1.082.317 1.702 1.162 1.702 2.284 0 1.439-1.03 2.508-2.758 2.508h-3.59v-8.712h2.996c1.544 0 2.481.937 2.481 2.204 0 .726-.303 1.32-.831 1.716zm-1.756-2.996h-1.861v2.706h1.861c1.016 0 1.531-.554 1.531-1.36 0-.805-.501-1.346-1.531-1.346zm.594 6.864c1.175 0 1.808-.66 1.808-1.61 0-.938-.633-1.61-1.808-1.61h-2.455v3.22h2.455zm7.458 1.056a3.332 3.332 0 0 1-3.353-3.353c0-1.887 1.479-3.353 3.366-3.353a3.335 3.335 0 0 1 3.366 3.353c0 1.861-1.491 3.353-3.379 3.353zm0-.937c1.32 0 2.336-1.043 2.336-2.403 0-1.386-1.003-2.428-2.323-2.428-1.333 0-2.323 1.042-2.323 2.428 0 1.373.99 2.403 2.31 2.403zm8.54-5.769c1.835 0 3.182 1.466 3.182 3.366 0 1.888-1.334 3.353-3.168 3.353-1.004 0-1.94-.435-2.442-1.161v1.016h-.95v-9.9h1.016v4.409c.514-.673 1.399-1.083 2.362-1.083zm-.145 5.782c1.32 0 2.284-1.03 2.284-2.429 0-1.399-.977-2.415-2.284-2.415-1.122 0-2.23.739-2.23 2.428 0 1.69 1.121 2.416 2.23 2.416zm8.488-5.782c1.835 0 3.181 1.466 3.181 3.366 0 1.888-1.333 3.353-3.168 3.353-1.003 0-1.94-.435-2.442-1.161v1.016h-.95v-9.9h1.016v4.409c.515-.673 1.4-1.083 2.363-1.083zm-.145 5.782c1.32 0 2.283-1.03 2.283-2.429 0-1.399-.977-2.415-2.283-2.415-1.122 0-2.231.739-2.231 2.428 0 1.69 1.122 2.416 2.23 2.416zm9.53-5.636h1.082l-3.168 7.326c-.501 1.148-1.2 1.623-2.178 1.623-.316 0-.686-.053-.99-.132v-.858c.304.04.555.066.78.066.62 0 1.095-.211 1.451-1.03l.343-.765-2.666-6.23h1.096l2.125 5.121 2.125-5.121zm10.283 6.573c-2.548 0-4.528-1.967-4.528-4.501 0-2.548 1.993-4.501 4.528-4.501 1.491 0 2.745.673 3.55 1.782l-.778.607c-.647-.898-1.584-1.439-2.772-1.439-2.02 0-3.459 1.531-3.459 3.538 0 2.033 1.466 3.59 3.512 3.59 1.306 0 2.323-.647 2.904-1.557v-1.175h-2.97v-.924h4v2.323c-.766 1.346-2.245 2.257-3.987 2.257zm8.751-6.626c.212 0 .344.026.476.053v.897h-.383c-1.043 0-2.02.66-2.02 1.888v3.643h-1.016v-6.428h.95v.91c.475-.633 1.228-.963 1.993-.963zm2.35-1.663c-.422 0-.766-.317-.766-.74 0-.409.344-.739.766-.739.41 0 .752.33.752.74a.74.74 0 0 1-.752.739zm-.515 8.144v-6.428h1.017v6.428h-1.017zm3.247 0v-9.9h1.017v9.9h-1.017zm3.248 0v-9.9h1.016v9.9h-1.016zm5.148.145a3.096 3.096 0 0 1-2.508-1.254l.646-.673c.528.554 1.07.99 1.848.99.674 0 1.228-.33 1.228-.91 0-.555-.475-.766-1.122-1.03l-.62-.264c-.977-.41-1.598-.872-1.598-1.782 0-1.162.99-1.796 2.165-1.796.924 0 1.65.396 2.152 1.017l-.62.633c-.423-.435-.977-.712-1.585-.712-.607 0-1.069.277-1.069.805 0 .435.33.633 1.043.937l.594.25c1.148.49 1.703.99 1.703 1.902 0 1.254-1.07 1.887-2.257 1.887z"/>
            <rect width="26.4" height="26.4" x="15.84" y="81.18" fill="#F5F6F8" rx="3.52"/>
            <g>
                <use fill="#000" filter="url(#h)" xlink:href="#i"/>
                <use fill="#FFF" xlink:href="#i"/>
            </g>
            <path fill="#172E59" fill-rule="nonzero" d="M18.713 199.1v-7.788h-3.062v-.924h7.167v.924h-3.075v7.788h-1.03zm7.379.132a3.332 3.332 0 0 1-3.353-3.353c0-1.887 1.479-3.353 3.366-3.353a3.335 3.335 0 0 1 3.366 3.353c0 1.861-1.491 3.353-3.379 3.353zm0-.937c1.32 0 2.336-1.043 2.336-2.403 0-1.386-1.003-2.428-2.323-2.428-1.333 0-2.323 1.042-2.323 2.428 0 1.373.99 2.403 2.31 2.403zm8.54-5.769c1.848 0 3.182 1.466 3.182 3.353 0 1.901-1.347 3.366-3.182 3.366-.937 0-1.834-.396-2.362-1.069v3.3h-1.017v-8.804h.95v1.03c.502-.74 1.426-1.176 2.43-1.176zm-.145 5.782c1.307 0 2.284-1.016 2.284-2.416 0-1.399-.964-2.428-2.284-2.428-1.109 0-2.23.726-2.23 2.415 0 1.69 1.108 2.429 2.23 2.429zm16.54-8.065h.356v8.857h-1.03v-6.244l-2.785 3.776h-.37L44.4 192.83v6.27h-1.03v-8.857h.37l3.63 5.029 3.657-5.03zm4.923 2.283c1.466 0 2.508.885 2.508 2.614v3.96h-.95v-.832c-.462.62-1.214.977-2.165.977-1.293 0-2.244-.686-2.244-1.808 0-1.083.911-1.795 2.31-1.795h2.033v-.555c0-1.082-.607-1.623-1.558-1.623-.805 0-1.372.382-1.874 1.03l-.673-.555c.607-.977 1.584-1.413 2.613-1.413zm-.475 5.874c1.056 0 1.967-.765 1.967-1.768v-.159h-1.914c-.898 0-1.386.304-1.386.911 0 .686.62 1.016 1.333 1.016zm8.065-5.874c1.518 0 2.39 1.043 2.39 2.535v4.039h-1.017v-3.92c0-1.017-.607-1.716-1.597-1.716s-1.69.712-1.69 1.716v3.92H60.61v-6.428h.95v.686c.462-.515 1.149-.832 1.98-.832zm6.851 0c1.465 0 2.508.885 2.508 2.614v3.96h-.95v-.832c-.462.62-1.215.977-2.165.977-1.294 0-2.244-.686-2.244-1.808 0-1.083.91-1.795 2.31-1.795h2.033v-.555c0-1.082-.607-1.623-1.558-1.623-.805 0-1.373.382-1.874 1.03l-.673-.555c.607-.977 1.584-1.413 2.613-1.413zm-.475 5.874c1.056 0 1.967-.765 1.967-1.768v-.159h-1.914c-.898 0-1.386.304-1.386.911 0 .686.62 1.016 1.333 1.016zm10.349-5.728h.963v5.808c0 1.98-1.254 3.141-3.128 3.141a4.279 4.279 0 0 1-3.023-1.24l.594-.713c.62.54 1.347 1.016 2.403 1.016 1.306 0 2.138-.726 2.138-2.152v-.567c-.515.673-1.426 1.069-2.39 1.069-1.808 0-3.154-1.373-3.154-3.247 0-1.861 1.346-3.26 3.155-3.26 1.016 0 1.94.435 2.442 1.174v-1.03zm-2.284 5.425c1.122 0 2.244-.7 2.244-2.31s-1.135-2.297-2.244-2.297c-1.307 0-2.283.95-2.283 2.31s.976 2.297 2.283 2.297zm11.233-2.667c0 .344-.052.634-.079.766h-5.082c.132 1.28 1.096 2.112 2.363 2.112.805 0 1.439-.343 1.967-.871l.594.686c-.647.687-1.518 1.122-2.574 1.122-1.94 0-3.406-1.465-3.406-3.353 0-1.874 1.439-3.366 3.287-3.366 1.65 0 2.93 1.188 2.93 2.904zm-2.956-1.98c-1.083 0-1.94.74-2.165 1.848h4.079c-.014-1.188-.898-1.848-1.914-1.848zm11.787-.924c1.505 0 2.337 1.043 2.337 2.535v4.039h-1.017v-3.907c0-1.017-.554-1.73-1.518-1.73-.977 0-1.65.74-1.65 1.637v4h-1.016v-3.907c0-1.017-.581-1.73-1.531-1.73-.977 0-1.637.713-1.637 1.73v3.907h-1.017v-6.428h.95v.673c.45-.515 1.11-.819 1.915-.819.963 0 1.623.436 1.98 1.11.449-.648 1.214-1.11 2.204-1.11zm10.243 2.904c0 .344-.052.634-.079.766h-5.082c.132 1.28 1.096 2.112 2.363 2.112.805 0 1.439-.343 1.967-.871l.594.686c-.647.687-1.518 1.122-2.574 1.122-1.94 0-3.406-1.465-3.406-3.353 0-1.874 1.439-3.366 3.287-3.366 1.65 0 2.93 1.188 2.93 2.904zm-2.956-1.98c-1.083 0-1.94.74-2.165 1.848h4.079c-.014-1.188-.898-1.848-1.914-1.848zm7.669-.924c1.518 0 2.389 1.043 2.389 2.535v4.039h-1.016v-3.92c0-1.017-.608-1.716-1.598-1.716-.99 0-1.69.712-1.69 1.716v3.92h-1.016v-6.428h.95v.686c.463-.515 1.15-.832 1.98-.832zm7.194 5.795c.25 0 .528-.026.858-.079v.858c-.33.08-.66.145-1.07.145-1.267 0-2.164-.62-2.164-2.085v-3.578h-1.083v-.91h1.083v-1.756h1.016v1.756h2.007v.91h-2.007v3.512c0 .963.555 1.227 1.36 1.227z"/>
        </g>
        <g transform="translate(79 26)">
            <circle cx="204" cy="44" r="9" stroke="#F01877"/>
            <circle cx="231" cy="28" r="3" stroke="#D6DCE7"/>
            <circle cx="199.5" cy="12.5" r="4.5" stroke="#D6DCE7"/>
            <circle cx="240.5" cy="11.5" r="1.5" stroke="#576C8C"/>
            <circle cx="301.5" cy="23.5" r="1.5" stroke="#D6DCE7"/>
            <circle cx="326.5" cy="46.5" r="2.5" stroke="#576C8C"/>
            <circle cx="340.5" cy="1.5" r="1.5" stroke="#F01877"/>
            <circle cx="359.5" cy="108.5" r="2.5" stroke="#576C8C"/>
            <circle cx="55.5" cy="285.5" r="4.5" stroke="#F01877"/>
            <circle cx="11" cy="292" r="11" stroke="#576C8C"/>
            <circle cx="116" cy="302" r="4" stroke="#D6DCE7"/>
            <circle cx="58" cy="318" r="2" stroke="#D6DCE7"/>
        </g>
        <path stroke="#D6DCE7" d="M399.942 314l101.93-101.93M399.942 324l101.93-101.93M399.942 334l101.93-101.93"/>
        <g stroke="#172E59" transform="translate(83 120)">
            <circle cx="5" cy="3" r="2.5"/>
            <path d="M.5 10a4.5 4.5 0 0 1 9 0"/>
        </g>
        <g stroke="#172E59" transform="translate(83 155)">
            <circle cx="5" cy="3" r="2.5"/>
            <path d="M.5 10a4.5 4.5 0 0 1 9 0"/>
        </g>
    </g>
</svg>
