<svg xmlns="http://www.w3.org/2000/svg" xmlns:xlink="http://www.w3.org/1999/xlink" viewBox="0 0 54.54 48.79"><defs><style>.cls-1{isolation:isolate;}.cls-2{fill:#e8effa;}.cls-3{fill:url(#linear-gradient);}.cls-4{fill:#ff9000;}.cls-5{fill:url(#linear-gradient-2);}.cls-6{fill:#2262af;}.cls-7{fill:#0668e3;}.cls-8{fill:#fdfdfd;}.cls-9{fill:url(#linear-gradient-3);}.cls-10{fill:url(#linear-gradient-4);}.cls-11{fill:url(#linear-gradient-5);}.cls-12{fill:url(#linear-gradient-6);}.cls-13{fill:url(#linear-gradient-7);}.cls-14{mix-blend-mode:soft-light;fill:url(#linear-gradient-8);}.cls-15{opacity:0.1;}.cls-16{fill:gray;}.cls-17{fill:url(#linear-gradient-9);}.cls-18{fill:url(#linear-gradient-10);}.cls-19{fill:#fff;}.cls-20{fill:#f9e4cf;}.cls-21{fill:url(#linear-gradient-11);}.cls-22{fill:url(#linear-gradient-12);}.cls-23{fill:url(#linear-gradient-13);}.cls-24{fill:url(#linear-gradient-14);}.cls-25{fill:url(#linear-gradient-15);}.cls-26{fill:#af7e52;}.cls-27{fill:#251d74;}.cls-28{fill:url(#linear-gradient-16);}</style><linearGradient id="linear-gradient" x1="27.11" y1="0.01" x2="30.88" y2="6.59" gradientUnits="userSpaceOnUse"><stop offset="0" stop-color="#3875d2"/><stop offset="1" stop-color="#002969"/></linearGradient><linearGradient id="linear-gradient-2" x1="48.66" y1="7.86" x2="50.87" y2="7.86" gradientUnits="userSpaceOnUse"><stop offset="0" stop-color="#3ae5d3"/><stop offset="1" stop-color="#00b3a1"/></linearGradient><linearGradient id="linear-gradient-3" x1="38.67" y1="23.58" x2="38.77" y2="30.33" gradientUnits="userSpaceOnUse"><stop offset="0.08" stop-color="#3ae5d3"/><stop offset="0.26" stop-color="#27d5c3"/><stop offset="0.52" stop-color="#12c2b0"/><stop offset="0.77" stop-color="#04b7a5"/><stop offset="1" stop-color="#00b3a1"/></linearGradient><linearGradient id="linear-gradient-4" x1="26.04" y1="16.9" x2="28.91" y2="16.9" gradientUnits="userSpaceOnUse"><stop offset="0" stop-color="#71ecdf"/><stop offset="1" stop-color="#00d6c0"/></linearGradient><linearGradient id="linear-gradient-5" x1="30.22" y1="16.9" x2="33.08" y2="16.9" xlink:href="#linear-gradient-4"/><linearGradient id="linear-gradient-6" x1="34.4" y1="16.9" x2="37.26" y2="16.9" xlink:href="#linear-gradient-4"/><linearGradient id="linear-gradient-7" x1="38.57" y1="16.9" x2="40.76" y2="16.9" xlink:href="#linear-gradient-4"/><linearGradient id="linear-gradient-8" x1="25.04" y1="18.43" x2="34.93" y2="36.32" gradientUnits="userSpaceOnUse"><stop offset="0" stop-color="#fff"/><stop offset="0.03" stop-color="#f6f6f6"/><stop offset="0.31" stop-color="#a0a0a0"/><stop offset="0.55" stop-color="#5b5b5b"/><stop offset="0.76" stop-color="#2a2a2a"/><stop offset="0.91" stop-color="#0b0b0b"/><stop offset="1"/></linearGradient><linearGradient id="linear-gradient-9" x1="31.43" y1="12.66" x2="31.59" y2="7.91" xlink:href="#linear-gradient-4"/><linearGradient id="linear-gradient-10" x1="15.56" y1="4.07" x2="15.88" y2="43.97" xlink:href="#linear-gradient-4"/><linearGradient id="linear-gradient-11" x1="-43.85" y1="53.51" x2="-41.66" y2="53.51" gradientTransform="translate(103.45 5.55) rotate(13.09)" xlink:href="#linear-gradient"/><linearGradient id="linear-gradient-12" x1="4.97" y1="39.53" x2="8.95" y2="39.53" gradientTransform="matrix(-1, 0, 0, 1, 55.53, 0)" xlink:href="#linear-gradient"/><linearGradient id="linear-gradient-13" x1="-44.61" y1="56.8" x2="-42.42" y2="56.8" gradientTransform="translate(105.42 7.61) rotate(17.79)" xlink:href="#linear-gradient"/><linearGradient id="linear-gradient-14" x1="6.74" y1="39.79" x2="10.99" y2="39.79" gradientTransform="matrix(-1, 0, 0, 1, 55.53, 0)" xlink:href="#linear-gradient"/><linearGradient id="linear-gradient-15" x1="10.39" y1="23.74" x2="7.02" y2="33.2" gradientTransform="matrix(-1, 0, 0, 1, 55.53, 0)" xlink:href="#linear-gradient-2"/><linearGradient id="linear-gradient-16" x1="13.34" y1="24.31" x2="9.59" y2="34.85" gradientTransform="matrix(-1, 0, 0, 1, 55.53, 0)" xlink:href="#linear-gradient-2"/></defs><title>Asset 2</title><g class="cls-1"><g id="Layer_2" data-name="Layer 2"><g id="Credit_And_Loan" data-name="Credit And Loan"><path class="cls-2" d="M50.85,22.26c5.23,6.78,4.23,24-16.59,24.36C15.44,46.92,5.56,33,7.41,18.55,9,6.12,25.89-3.35,39.31,3.21,54.38,10.57,45.39,15.19,50.85,22.26Z"/><path class="cls-3" d="M27.57,0,29,1a.15.15,0,0,1,0,.25l-1.7.88A.15.15,0,0,1,27,2l.32-1.9A.14.14,0,0,1,27.57,0Z"/><path class="cls-4" d="M8.41,25.76a.4.4,0,0,1-.17.1.36.36,0,0,1-.34-.09L6,24a.4.4,0,0,1-.11-.34.37.37,0,0,1,.24-.27l2.71-1a.4.4,0,0,1,.38.08.36.36,0,0,1,.09.37L8.5,25.61A.38.38,0,0,1,8.41,25.76ZM6.22,23.67a.06.06,0,0,0,0,0s0,0,0,.07L8.1,25.56s.06,0,.07,0a.08.08,0,0,0,.05,0l.85-2.76a.08.08,0,0,0-.1-.1l-2.72,1Z"/><path class="cls-4" d="M8.48,22.87A1.07,1.07,0,1,1,7.41,21.8,1.07,1.07,0,0,1,8.48,22.87Z"/><path class="cls-4" d="M51.4,26.57l.74-2.36a.21.21,0,0,1,.35-.09l2,1.92a.21.21,0,0,1-.11.36l-2.73.44A.21.21,0,0,1,51.4,26.57Z"/><circle class="cls-5" cx="49.76" cy="7.86" r="1.11"/><path class="cls-4" d="M50.2,10a.24.24,0,0,1-.14,0,.26.26,0,0,1-.16-.19L49.57,8a.24.24,0,0,1,.08-.24.26.26,0,0,1,.24-.06l2,.56a.26.26,0,0,1,.19.2.24.24,0,0,1-.1.25L50.31,10Zm-.39-2.11,0,0a.05.05,0,0,0,0,.05l.33,1.79s0,0,0,0h0l1.63-1.24a.06.06,0,0,0,0-.05,0,0,0,0,0,0,0l-2-.56Z"/><path class="cls-6" d="M43.93,12.17V41.83a1.18,1.18,0,0,1-.22.56c-.4.64-1.26,1.37-1.74,1.37h-.06L19.59,43a1.14,1.14,0,0,1-1.15-1.14v-9.5l-1-19.44V12.7c0-.63,1.47-1.68,2.11-1.68H42.78a1.12,1.12,0,0,1,.71.25A1.14,1.14,0,0,1,43.93,12.17Z"/><path class="cls-7" d="M43,13V42.63a1.14,1.14,0,0,1-1.15,1.14H18.63a1.14,1.14,0,0,1-1.15-1.14V13a1.15,1.15,0,0,1,1.15-1.15H41.81a1.1,1.1,0,0,1,.71.25A1.14,1.14,0,0,1,43,13Z"/><rect class="cls-8" x="18.51" y="13.04" width="23.41" height="7.73" rx="0.84" ry="0.84"/><rect class="cls-8" x="19.52" y="24.46" width="4.1" height="4.1" rx="0.45" ry="0.45"/><rect class="cls-8" x="19.52" y="29.94" width="4.1" height="4.1" rx="0.45" ry="0.45"/><rect class="cls-8" x="19.52" y="35.43" width="4.1" height="4.1" rx="0.45" ry="0.45"/><rect class="cls-8" x="25.24" y="24.46" width="4.1" height="4.1" rx="0.45" ry="0.45"/><rect class="cls-8" x="25.24" y="29.94" width="4.1" height="4.1" rx="0.45" ry="0.45"/><rect class="cls-8" x="25.24" y="35.43" width="4.1" height="4.1" rx="0.45" ry="0.45"/><rect class="cls-8" x="30.95" y="24.46" width="4.1" height="4.1" rx="0.45" ry="0.45"/><rect class="cls-8" x="30.95" y="29.94" width="4.1" height="4.1" rx="0.45" ry="0.45"/><rect class="cls-8" x="30.95" y="35.43" width="4.1" height="4.1" rx="0.45" ry="0.45"/><rect class="cls-8" x="36.81" y="24.33" width="4.1" height="4.1" rx="0.45" ry="0.45"/><rect class="cls-9" x="36.66" y="24.46" width="4.1" height="4.1" rx="0.45" ry="0.45"/><path class="cls-8" d="M40.17,29.94H37.25a.58.58,0,0,0-.59.59v8.41a.58.58,0,0,0,.59.58h2.92a.58.58,0,0,0,.59-.58V30.53A.58.58,0,0,0,40.17,29.94Z"/><path class="cls-10" d="M28.33,14.65a.59.59,0,0,1,.58.58v3.35a.57.57,0,0,1-.58.58H26.62a.57.57,0,0,1-.58-.58V15.23a.58.58,0,0,1,.58-.58Zm0,3.93V15.23H26.62v3.35Z"/><path class="cls-11" d="M32.5,16.71h-2a.3.3,0,0,1-.29-.29V14.94a.3.3,0,0,1,.29-.29h2.28a.29.29,0,0,1,.29.29v3.93a.28.28,0,0,1-.29.29H32.5a.29.29,0,0,1,0-.58Zm0-.58v-.9H30.8v.9Z"/><path class="cls-12" d="M35,15.23a.3.3,0,0,1-.29.29.3.3,0,0,1-.29-.29v-.29a.29.29,0,0,1,.29-.29h2.57v1.68c0,.2,0,.23-.16.36l-.81.71c-.15.13-.16.14-.16.34v1.13a.29.29,0,1,1-.58,0v-1.4a.31.31,0,0,1,.15-.33l.8-.69c.19-.17.18-.17.18-.42v-.8Z"/><path class="cls-13" d="M40.3,18.58V14.64H38.86a.27.27,0,0,0-.29.29.26.26,0,0,0,.29.29h.86v3.36h-.86a.29.29,0,1,0,0,.58h1.9v-.58Z"/><path class="cls-14" d="M43,13V42.63a1.14,1.14,0,0,1-1.15,1.14H18.63a1.14,1.14,0,0,1-1.15-1.14V33.14c.68,0,1.36-.07,2-.07,1.22,0,2.45,0,3.66-.12.15,0,.29,0,.45-.05.53-.06,1.07-.14,1.61-.25A17,17,0,0,0,28,31.83c.26-.09.51-.2.76-.31l.37-.17.19-.08a8.62,8.62,0,0,0,1.71-1.07s0,0,0,0l.14-.14a0,0,0,0,0,0,0s.05,0,.08-.06a6,6,0,0,0,1.08-1.4,11.22,11.22,0,0,0,1.21-4.11c.07-.53.12-1.08.16-1.61s.1-1.38.17-2.08a10.11,10.11,0,0,1,1.76-5.26A7.8,7.8,0,0,1,39.24,13c.23-.09.46-.16.69-.24a24.46,24.46,0,0,1,2.59-.73A1.14,1.14,0,0,1,43,13Z"/><path class="cls-15" d="M43.93,27.46v1.68h-.06a1.33,1.33,0,0,1-.47,0l.07,0L43,29a17.25,17.25,0,0,1-2.3-.68h0c-.35-.12-.68-.26-1-.4l0-.07,0,0a.69.69,0,0,1-.87-.64c0-.26-.1-.29-.35-.4s-.27-.13-.07-.24a2.2,2.2,0,0,1,1.53.58l0-.07a6.38,6.38,0,0,0,.85.27l.16,0a6.89,6.89,0,0,0,2.05.15l.62-.05Z"/><path class="cls-15" d="M43.93,36.83v5a1.18,1.18,0,0,1-.22.56l-.15-1.62A13,13,0,0,1,43.93,36.83Z"/><path class="cls-16" d="M35,10.9H28a3.47,3.47,0,1,1,6.93,0Z"/><path class="cls-16" d="M24.91,44.51l-.4,0h0l-.3,0Z"/><path class="cls-16" d="M28,40.86v.21a1.48,1.48,0,0,0,0-.21Z"/><path class="cls-17" d="M35,10.9H28a3.47,3.47,0,1,1,6.93,0Z"/><path class="cls-15" d="M32,7.49a3.73,3.73,0,0,0-2.89,3.79V42a4.11,4.11,0,0,1-.52,1.82H25L28,41.06V11.28a3.83,3.83,0,0,1,2.44-3.67,2.93,2.93,0,0,1,1-.17,2.23,2.23,0,0,1,.36,0Z"/><path class="cls-18" d="M31.49,7.43a4,4,0,0,0-1,.15h-.06l-.06,0L30,7.8A3.63,3.63,0,0,0,28,10.9s0,0,0,.06A.15.15,0,0,0,28,11V40.85h0a1.48,1.48,0,0,1,0,.21,3.45,3.45,0,0,1-3.11,3.45l-.4,0h0l-.41.19L16.87,48a2.53,2.53,0,0,1-1,.2H.13a.13.13,0,0,1-.06-.24L7.7,44.51a2.81,2.81,0,0,0,.71-.15,3.32,3.32,0,0,0,1.35-.81,1.67,1.67,0,0,0,.28-.31,3.39,3.39,0,0,0,.77-2.18,1.48,1.48,0,0,0,0-.21h0V11a.57.57,0,0,1,0-.13,3.52,3.52,0,0,1,3.45-3.47Z"/><path class="cls-16" d="M28,40.86v.21a1.48,1.48,0,0,0,0-.21Z"/><path class="cls-19" d="M17.47,14.63h-4a.83.83,0,0,1-.83-.83h0a.83.83,0,0,1,.83-.84h4a.84.84,0,0,1,.84.84h0A.84.84,0,0,1,17.47,14.63Z"/><path class="cls-19" d="M25.26,17.17h-12a.63.63,0,0,1-.63-.63h0a.63.63,0,0,1,.63-.62h12a.63.63,0,0,1,.63.62h0A.63.63,0,0,1,25.26,17.17Z"/><path class="cls-19" d="M25.26,19h-12a.63.63,0,0,1-.63-.63h0a.63.63,0,0,1,.63-.63h12a.63.63,0,0,1,.63.63h0A.63.63,0,0,1,25.26,19Z"/><path class="cls-19" d="M18.48,33.77H13.23a.63.63,0,0,1-.63-.63h0a.63.63,0,0,1,.63-.63h5.25a.63.63,0,0,1,.63.63h0A.63.63,0,0,1,18.48,33.77Z"/><path class="cls-19" d="M18.62,35.61H13.23A.63.63,0,0,1,12.6,35h0a.63.63,0,0,1,.63-.63h5.39a.63.63,0,0,1,.63.63h0A.63.63,0,0,1,18.62,35.61Z"/><path class="cls-19" d="M25.26,38.38h-12a.63.63,0,0,1-.63-.63h0a.63.63,0,0,1,.63-.63h12a.63.63,0,0,1,.63.63h0A.63.63,0,0,1,25.26,38.38Z"/><path class="cls-19" d="M25.26,40.21h-12a.63.63,0,0,1-.63-.62h0a.63.63,0,0,1,.63-.63h12a.63.63,0,0,1,.63.63h0A.63.63,0,0,1,25.26,40.21Z"/><path class="cls-19" d="M17,43.57H11.7c-.34,0-.31-.14.08-.32h0a3.56,3.56,0,0,1,1.33-.33h5.25c.35,0,.31.14-.07.33h0A3.84,3.84,0,0,1,17,43.57Z"/><path class="cls-19" d="M15,44.53H9.65c-.35,0-.31-.14.07-.32h0a3.65,3.65,0,0,1,1.33-.33h5.39c.35,0,.32.14-.07.33h0A3.79,3.79,0,0,1,15,44.53Z"/><path class="cls-19" d="M18.59,46h-12c-.35,0-.32-.15.07-.33h0A3.82,3.82,0,0,1,8,45.32H20c.34,0,.31.15-.08.33h0A3.76,3.76,0,0,1,18.59,46Z"/><path class="cls-19" d="M16.54,46.94H4.5c-.34,0-.31-.15.08-.33h0a3.76,3.76,0,0,1,1.33-.33h12c.35,0,.32.15-.07.33h0A3.82,3.82,0,0,1,16.54,46.94Z"/><path class="cls-19" d="M22.75,24.94c-1.52,0-2.61,1.28-2.61,3.16A2.82,2.82,0,0,0,21.9,31a2.22,2.22,0,0,0,.77.12,2.34,2.34,0,0,0,1.56-.56,3.22,3.22,0,0,0,1.05-2.62C25.28,26.14,24.34,24.94,22.75,24.94Zm0,5.11c-.75,0-1.17-.86-1.15-2s.39-2,1.15-2,1.13.88,1.13,2S23.49,30.05,22.72,30.05ZM21.61,20.8l0,.05L15.8,31.17h1.07l5.8-10.32,0-.05Zm-5.27.05a2.63,2.63,0,0,0-.49-.05,2.46,2.46,0,0,0-.49.05c-1.29.23-2.15,1.41-2.15,3.09,0,1.94,1.15,3,2.56,3s2.6-1.06,2.6-3.18C18.37,22.18,17.62,21.07,16.34,20.85Zm-.53,5c-.75,0-1.16-.86-1.15-2s.39-2,1.15-2,1.13.89,1.13,2S16.57,25.9,15.81,25.9Z"/><path class="cls-20" d="M49.58,47.09a1.3,1.3,0,0,1-.15.77l1.18-.12a1.15,1.15,0,0,1-.25-.72Z"/><path class="cls-21" d="M48.51,48.28c0-.14.36-.51.92-.58a1.74,1.74,0,0,0,1.2-.06c.11.2.23.39.11.58A4.78,4.78,0,0,1,48.51,48.28Z"/><path class="cls-22" d="M49.33,47.39l-2.33-8a12.88,12.88,0,0,1,.4-7.76l3,1c0,3.32-1.11,4.61-1,6.43l1.22,8.16Z"/><path class="cls-20" d="M46.6,47.49a1.2,1.2,0,0,1-.21.75l1.19,0a1.21,1.21,0,0,1-.19-.74Z"/><path class="cls-23" d="M45.44,48.58c0-.13.41-.47,1-.5a1.79,1.79,0,0,0,1.2.05c.09.2.19.4.06.58A4.72,4.72,0,0,1,45.44,48.58Z"/><path class="cls-24" d="M46.4,47.7l-1.67-8.12a12.89,12.89,0,0,1,1-7.7l3,1.38c-.32,3.51-1.64,4.39-1.7,6.21l.55,8.23Z"/><path class="cls-25" d="M44.74,34a6.86,6.86,0,0,0,1.92.35c1.13.09,2.35,0,3.71.09h.13c.21-3.53,0-8.24-.92-9.33a4.56,4.56,0,0,0-4.49.35v0a7.22,7.22,0,0,0-.22,2.14,1.79,1.79,0,0,0,0,.48C45,30.09,45.52,31.92,44.74,34Z"/><path class="cls-26" d="M46.35,23.75l.16,1.14a.52.52,0,0,0,.29.07A1.62,1.62,0,0,0,48,24.67l-.39-.82-.22-.44Z"/><path class="cls-15" d="M46.35,23.75l.16,1.14a.52.52,0,0,0,.29.07,2.34,2.34,0,0,0-.09-.24,1.5,1.5,0,0,1,0-.29.49.49,0,0,1,0-.13l.08-.07c.15-.08.32-.1.48-.17a1.36,1.36,0,0,0,.34-.21l-.22-.44Z"/><path class="cls-26" d="M45.93,24.44c.39.27,1.13-.21,1.82-.54v-.23l-.08-2.19-1.9.16a8,8,0,0,0-.15.92A3.55,3.55,0,0,0,45.93,24.44Z"/><path class="cls-15" d="M45.61,22.56a.17.17,0,0,1,.1,0,.72.72,0,0,1,.19.11c.12.08.26.14.38.23s.17.21.27.31a1.7,1.7,0,0,0,1.19.45l-.08-2.19-1.9.16A8,8,0,0,0,45.61,22.56Z"/><path class="cls-27" d="M47.94,24.12a1,1,0,0,1-1.27-.25c-.2-.28-.14-.43.1-.76s.09-.53-.11-.49-.33.64-.33.64l-.18-.16a.92.92,0,0,0,0-.66c-.16-.25-.66,0-.71-.37s.08-.89.49-.91.63.19,1.14,0,1.15.51,1.19,1.15S48.22,23.92,47.94,24.12Z"/><path class="cls-26" d="M39.58,26.46A2.18,2.18,0,0,0,38,26c-.19.13,0,.2.1.24s.32.1.39.35a.69.69,0,0,0,.94.54C39.84,27.08,39.58,26.46,39.58,26.46Z"/><path class="cls-28" d="M39.45,27.22A13.53,13.53,0,0,0,44,28c.34-.06.67-.12,1.1-.16l.09,0a.14.14,0,0,1,.19,0l0,0,0,0a5.68,5.68,0,0,0,1.54-.46H47a1.07,1.07,0,0,0-.2-.51A3.85,3.85,0,0,0,45,25.45a2.81,2.81,0,0,1-1.73.93,7.33,7.33,0,0,1-3.71,0Z"/><path class="cls-15" d="M44.87,27.65a5.31,5.31,0,0,0-1.56.35,15,15,0,0,0,1.55-.17c.19,2,.68,4.09-.12,6.18a6.86,6.86,0,0,0,1.92.35c-.44-.26-1-.52-1.09-1a2.72,2.72,0,0,1,.22-1.18c.21-1.14-.66-2.27-.4-3.4a2,2,0,0,1,.27-.66,2.83,2.83,0,0,1,.21-.52.65.65,0,0,1-.48.17.27.27,0,0,1-.17,0A.94.94,0,0,1,44.87,27.65Z"/></g></g></g></svg>