
<svg width="20px" height="18px" viewBox="0 0 20 18" version="1.1" xmlns="http://www.w3.org/2000/svg" xmlns:xlink="http://www.w3.org/1999/xlink">
    <g id="Page-1" stroke="none" stroke-width="1" fill="none" fill-rule="evenodd">
        <g id="Home-option1" transform="translate(-240.000000, -3312.000000)" fill="#779CC8" fill-rule="nonzero">
            <g id="linkedin-fill" transform="translate(237.000000, 3309.000000)">
                <path d="M7.00000026,5.00100051 C6.99944823,6.10557001 6.10357001,7.0005528 4.99900051,7.00000026 C3.89443101,6.99944823 2.99944823,6.10357001 3.00000026,4.99900051 C3.0005528,3.89443101 3.89643101,2.99944823 5.00100051,3.00000026 C6.10557001,3.0005528 7.0005528,3.89643101 7.00000026,5.00100051 L7.00000026,5.00100051 Z M7.06000051,8.48100051 L3.06000051,8.48100051 L3.06000051,21.0010005 L7.06000051,21.0010005 L7.06000051,8.48100051 Z M13.3800005,8.48100051 L9.40000051,8.48100051 L9.40000051,21.0010005 L13.3400005,21.0010005 L13.3400005,14.4310005 C13.3400005,10.7710005 18.1100005,10.4310005 18.1100005,14.4310005 L18.1100005,21.0010005 L22.0600005,21.0010005 L22.0600005,13.0710005 C22.0600005,6.90100051 15.0000005,7.13100051 13.3400005,10.1610005 L13.3800005,8.48100051 Z" id="Shape"></path>
            </g>
        </g>
    </g>
</svg>