<svg xmlns="http://www.w3.org/2000/svg" xmlns:xlink="http://www.w3.org/1999/xlink" viewBox="0 0 56.64 50.18"><defs><style>.cls-1{fill:none;}.cls-2{isolation:isolate;}.cls-3{fill:#e8effa;}.cls-4{fill:#22d3bd;}.cls-5{clip-path:url(#clip-path);}.cls-6{fill:#3ae5d3;}.cls-7{opacity:0.1;}.cls-8{fill:url(#linear-gradient);}.cls-13,.cls-19,.cls-9{mix-blend-mode:soft-light;}.cls-9{fill:url(#linear-gradient-2);}.cls-10{fill:#85adeb;}.cls-11{fill:#fff;}.cls-12{fill:#0668e3;}.cls-13{fill:url(#linear-gradient-3);}.cls-14{fill:#c69060;}.cls-15{fill:url(#linear-gradient-4);}.cls-16{fill:url(#linear-gradient-5);}.cls-17{fill:#251d74;}.cls-18{fill:#ff9000;}.cls-19{fill:url(#linear-gradient-6);}.cls-20{fill:url(#linear-gradient-7);}.cls-21{fill:url(#linear-gradient-8);}.cls-22{fill:url(#linear-gradient-9);}.cls-23{fill:url(#linear-gradient-10);}.cls-24{fill:url(#linear-gradient-11);}.cls-25{fill:url(#linear-gradient-12);}</style><clipPath id="clip-path"><rect class="cls-1" x="10.64" y="6.59" width="8.65" height="19.07"/></clipPath><linearGradient id="linear-gradient" x1="14.86" y1="6.11" x2="15.04" y2="8.62" gradientUnits="userSpaceOnUse"><stop offset="0" stop-color="#71ecdf"/><stop offset="1" stop-color="#00d6c0"/></linearGradient><linearGradient id="linear-gradient-2" x1="13.94" y1="13.29" x2="16.22" y2="17.47" gradientUnits="userSpaceOnUse"><stop offset="0" stop-color="#fff"/><stop offset="1"/></linearGradient><linearGradient id="linear-gradient-3" x1="20.07" y1="25.29" x2="28.96" y2="38.91" xlink:href="#linear-gradient-2"/><linearGradient id="linear-gradient-4" x1="45.44" y1="46.43" x2="47.6" y2="46.43" gradientTransform="matrix(1, 0.05, -0.05, 1, 1.42, -1.08)" gradientUnits="userSpaceOnUse"><stop offset="0" stop-color="#3875d2"/><stop offset="1" stop-color="#002969"/></linearGradient><linearGradient id="linear-gradient-5" x1="39.23" y1="32.26" x2="40.48" y2="34.72" gradientUnits="userSpaceOnUse"><stop offset="0" stop-color="#3ae5d3"/><stop offset="1" stop-color="#00b3a1"/></linearGradient><linearGradient id="linear-gradient-6" x1="29.08" y1="36.09" x2="38.9" y2="47.75" xlink:href="#linear-gradient-2"/><linearGradient id="linear-gradient-7" x1="43.7" y1="37.74" x2="46.36" y2="39.41" xlink:href="#linear-gradient-4"/><linearGradient id="linear-gradient-8" x1="45.87" y1="55.65" x2="47.95" y2="55.65" gradientTransform="matrix(0.94, -0.34, 0.34, 0.94, -10.49, 10.81)" xlink:href="#linear-gradient-4"/><linearGradient id="linear-gradient-9" x1="41.69" y1="46.72" x2="45.84" y2="49.08" gradientTransform="matrix(0.94, -0.34, 0.34, 0.94, -10.49, 10.81)" xlink:href="#linear-gradient-4"/><linearGradient id="linear-gradient-10" x1="42.54" y1="29.87" x2="46.54" y2="36.03" xlink:href="#linear-gradient-5"/><linearGradient id="linear-gradient-11" x1="41" y1="30.87" x2="44.99" y2="37.03" xlink:href="#linear-gradient-5"/><linearGradient id="linear-gradient-12" x1="45.87" y1="8.95" x2="49.79" y2="17.24" gradientTransform="translate(-4.71 6.16) rotate(-10.67)" xlink:href="#linear-gradient-4"/></defs><title>Asset 2</title><g class="cls-2"><g id="Layer_2" data-name="Layer 2"><g id="Object"><path class="cls-3" d="M55.46,26.47C55.27,36.93,47.25,49.81,35,50.16,18.27,50.65.88,40.53.88,28.31s16.7-16.77,25-24.08C37.12-5.68,55.7,14,55.46,26.47Z"/><rect class="cls-4" x="10.64" y="6.59" width="8.65" height="19.07"/><g class="cls-5"><rect class="cls-6" x="11.38" y="9.32" width="2.19" height="1.03" rx="0.18" ry="0.18"/><rect class="cls-6" x="14.27" y="9.32" width="2.19" height="1.03" rx="0.18" ry="0.18"/><rect class="cls-6" x="17.16" y="9.32" width="2.19" height="1.03" rx="0.18" ry="0.18"/><rect class="cls-6" x="20.05" y="9.32" width="2.19" height="1.03" rx="0.18" ry="0.18"/><rect class="cls-6" x="10.26" y="10.66" width="2.19" height="1.03" rx="0.18" ry="0.18"/><rect class="cls-6" x="13.15" y="10.66" width="2.19" height="1.03" rx="0.18" ry="0.18"/><rect class="cls-6" x="16.04" y="10.66" width="2.19" height="1.03" rx="0.18" ry="0.18"/><rect class="cls-6" x="18.93" y="10.66" width="2.19" height="1.03" rx="0.18" ry="0.18"/><rect class="cls-6" x="11.38" y="12.16" width="2.19" height="1.03" rx="0.18" ry="0.18"/><rect class="cls-6" x="14.27" y="12.16" width="2.19" height="1.03" rx="0.18" ry="0.18"/><rect class="cls-6" x="17.16" y="12.16" width="2.19" height="1.03" rx="0.18" ry="0.18"/><rect class="cls-6" x="20.05" y="12.16" width="2.19" height="1.03" rx="0.18" ry="0.18"/><rect class="cls-6" x="10.26" y="13.51" width="2.19" height="1.03" rx="0.18" ry="0.18"/><rect class="cls-6" x="13.15" y="13.51" width="2.19" height="1.03" rx="0.18" ry="0.18"/><rect class="cls-6" x="16.04" y="13.51" width="2.19" height="1.03" rx="0.18" ry="0.18"/><rect class="cls-6" x="18.93" y="13.51" width="2.19" height="1.03" rx="0.18" ry="0.18"/><rect class="cls-6" x="11.38" y="15" width="2.19" height="1.03" rx="0.18" ry="0.18"/><rect class="cls-6" x="14.27" y="15" width="2.19" height="1.03" rx="0.18" ry="0.18"/><rect class="cls-6" x="17.16" y="15" width="2.19" height="1.03" rx="0.18" ry="0.18"/><rect class="cls-6" x="20.05" y="15" width="2.19" height="1.03" rx="0.18" ry="0.18"/><rect class="cls-6" x="10.26" y="16.35" width="2.19" height="1.03" rx="0.18" ry="0.18"/><rect class="cls-6" x="13.15" y="16.35" width="2.19" height="1.03" rx="0.18" ry="0.18"/><rect class="cls-6" x="16.04" y="16.35" width="2.19" height="1.03" rx="0.18" ry="0.18"/><rect class="cls-6" x="18.93" y="16.35" width="2.19" height="1.03" rx="0.18" ry="0.18"/><rect class="cls-6" x="11.38" y="17.84" width="2.19" height="1.03" rx="0.18" ry="0.18"/><rect class="cls-6" x="14.27" y="17.84" width="2.19" height="1.03" rx="0.18" ry="0.18"/><rect class="cls-6" x="17.16" y="17.84" width="2.19" height="1.03" rx="0.18" ry="0.18"/><rect class="cls-6" x="20.05" y="17.84" width="2.19" height="1.03" rx="0.18" ry="0.18"/><rect class="cls-6" x="10.26" y="19.19" width="2.19" height="1.03" rx="0.18" ry="0.18"/><rect class="cls-6" x="13.15" y="19.19" width="2.19" height="1.03" rx="0.18" ry="0.18"/><rect class="cls-6" x="16.04" y="19.19" width="2.19" height="1.03" rx="0.18" ry="0.18"/><rect class="cls-6" x="18.93" y="19.19" width="2.19" height="1.03" rx="0.18" ry="0.18"/></g><polygon class="cls-7" points="19.29 7.57 19.29 9.54 10.64 8.91 10.64 6.92 19.29 7.57"/><rect class="cls-8" x="9.58" y="6.59" width="10.78" height="1.97" rx="0.4" ry="0.4"/><path class="cls-9" d="M19.29,9.66V21.21l-.11.05a9.15,9.15,0,0,1-3.06.45A16,16,0,0,1,11.69,21a8.64,8.64,0,0,1-1-.36V17.14a9.81,9.81,0,0,1,1.35-.3,2.7,2.7,0,0,0,1.34-.44c.28-.26.32-.64.6-.9a2.45,2.45,0,0,1,1.18-.42c.9-.18,1.89-.52,2.18-1.2s-.11-1.2-.38-1.78-.47-1.28,0-1.76a2.39,2.39,0,0,1,1.19-.51A6.22,6.22,0,0,1,19.29,9.66Z"/><path class="cls-10" d="M44.2,25.25V43.19a2,2,0,0,1-.11.65,2,2,0,0,1-1.42,1.31,1.88,1.88,0,0,1-.49.06H11.06a2,2,0,0,1-2-2V25.25l1.6-1.12h0l3.61-2.55h0l5-3.55,7.33-5.19Z"/><g class="cls-7"><path d="M44.2,25.25v1.06L28,16.36a.86.86,0,0,0-.9,0L9,27.46V25.25L26.62,12.83Z"/></g><path class="cls-11" d="M31.94,29.62V45.21H21.3V29.62a1.31,1.31,0,0,1,1.31-1.31h8a1.27,1.27,0,0,1,.74.23A1.32,1.32,0,0,1,31.94,29.62Z"/><rect class="cls-11" x="13.31" y="29.02" width="3.88" height="8.61" rx="0.68" ry="0.68"/><rect class="cls-11" x="36.04" y="29.02" width="3.88" height="8.61" rx="0.68" ry="0.68" transform="translate(75.96 66.66) rotate(180)"/><path class="cls-12" d="M45.14,26.35,27.07,15.24a.86.86,0,0,0-.9,0L8.1,26.35a.85.85,0,0,1-1.18-.29l-1-1.62a.86.86,0,0,1,.28-1.18L26.17,11a.86.86,0,0,1,.9,0L47,23.26a.86.86,0,0,1,.28,1.18l-1,1.62A.85.85,0,0,1,45.14,26.35Z"/><path class="cls-13" d="M44.2,26.86V43.19a2,2,0,0,1-.11.65,2,2,0,0,1-1.42,1.31,1.88,1.88,0,0,1-.49.06H11.06a2,2,0,0,1-2-2V40.93a17.62,17.62,0,0,0,9.42-4.46c.93-.85,1.88-1.64,2.84-2.38,1.87-1.43,3.57-3.81,5.33-5.78a10.68,10.68,0,0,1,4-3.16C35,23.57,40.19,26.4,44.2,26.86Z"/><path class="cls-7" d="M44,33.56c-.74.35-1.31,1.11-1.94,1.11A8.18,8.18,0,0,1,39.93,34c-.52-.22-1.06-.47-1.64-.76a.62.62,0,0,0-.81,0s0,0-.06.08A7.09,7.09,0,0,0,36,33.11a7.5,7.5,0,0,0-3.46.55c-.21.09-.43.19-.64.3a8,8,0,0,0-1.29.85,7.72,7.72,0,0,0-3,9.42,6.89,6.89,0,0,0,.49,1H41.85a7.68,7.68,0,0,0,1-6.76,13.91,13.91,0,0,0,1.34-.6v-1c-.46.34-1,.69-1.54,1h0a7.55,7.55,0,0,0-1.34-2.16l.26.1.1,0h0a4.05,4.05,0,0,0,.71.09h0a5,5,0,0,0,.76-.06h0c.24,0,.48-.08.72-.13l.08,0,.17,0V33.46a.64.64,0,0,0-.16.11Zm-5.83-.08,0,.08L38,33.5C38.19,33.46,38.2,33.48,38.2,33.48Zm4.93-2.95a1.41,1.41,0,0,0-.37.56c-.07.26.43.69.6.83l.06.19a1.88,1.88,0,0,0,.72,1.06h.06V30.35A1.76,1.76,0,0,0,43.13,30.53Z"/><path class="cls-14" d="M45.39,46.85a1.2,1.2,0,0,1-.16.73l1.12-.1a1.14,1.14,0,0,1-.22-.68Z"/><path class="cls-15" d="M44.35,48c0-.14.36-.48.89-.54a1.63,1.63,0,0,0,1.14,0c.1.19.21.37.09.55A4.59,4.59,0,0,1,44.35,48Z"/><path class="cls-16" d="M42,31.3c-.8.37-1.42,1.18-2.09,1.18A13.9,13.9,0,0,1,35.81,31l-.21.58a17.65,17.65,0,0,0,3.89,2.21,6.51,6.51,0,0,0,3.44-.4Z"/><path class="cls-17" d="M40.53,35.94A8.32,8.32,0,1,1,29.67,31.4,8.32,8.32,0,0,1,40.53,35.94Z"/><path class="cls-12" d="M35.23,47.34a8.31,8.31,0,0,1-10.15-3.18,7.18,7.18,0,0,1-.71-1.38,8.31,8.31,0,0,1,13.17-9.4,8,8,0,0,1,2.23,3.1A8.33,8.33,0,0,1,35.23,47.34Z"/><path class="cls-18" d="M37.94,37.23a6.35,6.35,0,1,1-8.28-3.47A6.35,6.35,0,0,1,37.94,37.23Z"/><path class="cls-19" d="M35.23,47.34a8.31,8.31,0,0,1-10.15-3.18A6.28,6.28,0,0,1,28,42.07,17.86,17.86,0,0,1,32,41.23,6.25,6.25,0,0,0,33.44,41a6,6,0,0,0,2.85-2.49A7.39,7.39,0,0,0,37.7,35.4a4.08,4.08,0,0,0-.16-2,8,8,0,0,1,2.23,3.1A8.33,8.33,0,0,1,35.23,47.34Z"/><path class="cls-20" d="M45.29,46.93a1.77,1.77,0,0,0,.91-.06L46.58,41a6.55,6.55,0,0,1,2-4.45l-2.71-2.21a11.18,11.18,0,0,0-1.33,6.79Z"/><path class="cls-14" d="M52.17,46.24a1.13,1.13,0,0,1,.28.68l.88-.7a1.19,1.19,0,0,1-.58-.45Z"/><path class="cls-21" d="M51.94,47.74c-.1-.1,0-.6.43-1a1.61,1.61,0,0,0,.93-.67c.18.1.38.2.38.41A4.54,4.54,0,0,1,51.94,47.74Z"/><path class="cls-22" d="M52.14,46.36a1.88,1.88,0,0,0,.72-.57l-3-5.08c-1.12-1.88-.67-2.69-1.16-4.5l-3.19-.59A11,11,0,0,0,48.22,42Z"/><path class="cls-7" d="M42.64,32.53c0,.13,0,.27,0,.41s0,.3.06.45v0a6.26,6.26,0,0,1-3.26.34,7.19,7.19,0,0,1-.76-.31c.37,0,.69.23,1.09.19a6,6,0,0,0,.7-.18,6.66,6.66,0,0,1,.78-.11,2.11,2.11,0,0,0,1.06-.54,1.3,1.3,0,0,0,.18-.15A1.34,1.34,0,0,0,42.64,32.53Z"/><path class="cls-23" d="M49,36.58c0,.08-.22.19-.51.3-1,.43-3.14,1-3.83.25a17.93,17.93,0,0,0-1.24-2c-.81-1.24-1.65-2.7-1.61-3.58.11-.44,1.61-1,2.67-1C46.16,30.78,48.28,34.76,49,36.58Z"/><path class="cls-14" d="M43.74,30.71a1.29,1.29,0,0,1-.17.16,1.4,1.4,0,0,1-.78.43,1.64,1.64,0,0,0-.16-.45l-.4-.71.6-.43A4.9,4.9,0,0,0,43.74,30.71Z"/><path class="cls-7" d="M43.74,30.71a1.29,1.29,0,0,1-.17.16c-.07,0-.11-.06-.18-.11a.51.51,0,0,0-.42-.05.84.84,0,0,0-.2.08s-.11,0-.14.06l-.4-.71.6-.43A4.9,4.9,0,0,0,43.74,30.71Z"/><path class="cls-14" d="M43.26,28.33l.13,1.93h0c-.18.23-.88.76-1.26.6a2,2,0,0,1-.79-1.15,2.13,2.13,0,0,1-.11-1.22Z"/><path class="cls-7" d="M43.26,28.33l.13,1.93L43.16,30A2,2,0,0,0,42,29.61a1.56,1.56,0,0,0-.48,0,.56.56,0,0,0-.22.13,2.13,2.13,0,0,1-.11-1.22Z"/><path class="cls-17" d="M41.35,29.57a1.64,1.64,0,0,0,.88-.36l.14.48.1,0s-.06-.39.07-.38.39.24.28.42,0,.9.33.84.5-1.28.56-1.49a.9.9,0,0,0-.16-.65c-.47-.74-2.23-.65-2.5-.38a1.3,1.3,0,0,0-.4.6C40.54,29,41.35,29.57,41.35,29.57Z"/><path class="cls-7" d="M54.64,47.75a2.83,2.83,0,0,1-1.32.16A2.81,2.81,0,0,1,52,47.75c0-.1.59-.17,1.31-.17S54.64,47.65,54.64,47.75Z"/><path class="cls-14" d="M35.81,31A.66.66,0,0,0,35,31c-.25.17.08.38.43.3s.35-.05.35-.05Z"/><path class="cls-7" d="M48.53,36.88c-1,.43-3.14,1-3.83.25a17.93,17.93,0,0,0-1.24-2,2,2,0,0,0,.54-.66,13.69,13.69,0,0,0,1.1-2.66,1.86,1.86,0,0,1,.33,1.75,6.72,6.72,0,0,1-.8,1.64,1.21,1.21,0,0,0-.15.33,1.6,1.6,0,0,0,.11.4,1,1,0,0,0,.55.69,1.07,1.07,0,0,0,.58.08c.58,0,1.13,0,1.72,0a1.63,1.63,0,0,1,.76,0Z"/><path class="cls-14" d="M40.19,36.16l.15,0,.34.43-.12.09c-.25.62-.92.29-1,.05s.36-.2.38-.33-.15,0-.17-.23S40,36.13,40.19,36.16Z"/><path class="cls-24" d="M43.89,31.33c-.11.88.23,1.51-.13,2.08a13.72,13.72,0,0,1-3.45,2.68l.38.49a17.91,17.91,0,0,0,3.93-2.11,2.94,2.94,0,0,0,.65-3.29A.78.78,0,0,0,43.89,31.33Z"/><path class="cls-11" d="M34.62,37.92l-.77.69-.67-.74.77-.7a.27.27,0,0,0,0-.4.29.29,0,0,0-.4,0l-.77.7-.93-1a.71.71,0,0,0-.38-.25.41.41,0,0,0-.32.12.35.35,0,0,0-.14.29.76.76,0,0,0,.21.41l.93,1-1.46,1.31-1.46-.38-.36-.1a1.11,1.11,0,0,0-.28-.05.46.46,0,0,0-.2,0,.5.5,0,0,0-.19.12.55.55,0,0,0-.18.29.5.5,0,0,0,0,.32,1.28,1.28,0,0,0,.24.35l.8.89-.77.69a.28.28,0,0,0,.38.42l.77-.69.67.75-.77.69a.27.27,0,0,0,0,.4.29.29,0,0,0,.4,0l.76-.69,1.06,1.18a.64.64,0,0,0,.39.24.43.43,0,0,0,.46-.41.63.63,0,0,0-.2-.41l-1.06-1.18,1.32-1.19,1.69.46.35.08.3,0a.61.61,0,0,0,.24,0,.85.85,0,0,0,.21-.14c.2-.18.34-.41-.05-.85l-1-1.11.78-.69a.28.28,0,0,0,0-.4A.27.27,0,0,0,34.62,37.92Zm-2.07.51.67.75-.69.61-1.16-.3,1.18-1.06Zm-3.21,1.34L30,40l-.29.25Zm1.44,1.6-.67-.75.56-.5,1.15.31Zm3.37-1.15-1-.25.41-.37.55.62Z"/><path class="cls-12" d="M16.57,0l1.95,1.42a.21.21,0,0,1,0,.35L16.1,3.05a.21.21,0,0,1-.3-.22L16.25.17A.2.2,0,0,1,16.57,0Z"/><path class="cls-18" d="M2.65,31.23a.37.37,0,0,1-.18.11.37.37,0,0,1-.36-.1l-2-1.89A.37.37,0,0,1,0,29a.41.41,0,0,1,.25-.29l2.88-1a.41.41,0,0,1,.4.09.38.38,0,0,1,.11.39l-.91,2.94A.24.24,0,0,1,2.65,31.23ZM.33,29s0,0,0,0a.07.07,0,0,0,0,.08l2,1.89a.07.07,0,0,0,.08,0A.06.06,0,0,0,2.45,31l.9-2.94a.07.07,0,0,0,0-.08.09.09,0,0,0-.08,0L.36,29Z"/><path class="cls-18" d="M2.73,28.17A1.14,1.14,0,1,1,1.59,27,1.14,1.14,0,0,1,2.73,28.17Z"/><path class="cls-18" d="M55,27.68l1.56,1.73a.2.2,0,0,1-.1.33L54,30.43a.2.2,0,0,1-.23-.27l1-2.42A.2.2,0,0,1,55,27.68Z"/><path class="cls-18" d="M43.27,7.05A1.1,1.1,0,1,1,42.18,6,1.09,1.09,0,0,1,43.27,7.05Z"/><path class="cls-25" d="M42.61,9.18a.2.2,0,0,1-.13,0A.22.22,0,0,1,42.32,9L42,7.21A.3.3,0,0,1,42.06,7a.27.27,0,0,1,.24-.06l1.94.56a.22.22,0,0,1,.18.19.25.25,0,0,1-.09.25L42.72,9.14A.21.21,0,0,1,42.61,9.18Zm-.39-2.07h0a0,0,0,0,0,0,0l.33,1.77s0,0,0,0h.05l1.61-1.23s0,0,0,0,0,0,0,0l-1.94-.55A0,0,0,0,0,42.22,7.11Z"/></g></g></g></svg>