
<svg width="21px" height="17px" viewBox="0 0 21 17" version="1.1" xmlns="http://www.w3.org/2000/svg" xmlns:xlink="http://www.w3.org/1999/xlink">
    <g id="Page-1" stroke="none" stroke-width="1" fill="none" fill-rule="evenodd">
        <g id="Home-option1" transform="translate(-196.000000, -3313.000000)" fill="#779CC8" fill-rule="nonzero">
            <g id="twitter-fill" transform="translate(194.000000, 3309.000000)">
                <path d="M22.383,5.96759087 C21.619557,6.3052846 20.8099601,6.52706426 19.981,6.62559087 C20.8547508,6.10302419 21.5087055,5.2806051 21.821,4.31159087 C21.001,4.79959087 20.102,5.14159087 19.165,5.32659087 C17.8708495,3.94191039 15.8072776,3.60067991 14.1362663,4.4950438 C12.465255,5.38940769 11.6046288,7.29573663 12.039,9.14059087 C8.67602254,8.97203414 5.54274389,7.38358545 3.419,4.77059087 C3.04729012,5.40904119 2.85195514,6.1348176 2.853,6.87359087 C2.853,8.32359087 3.591,9.60459087 4.713,10.3545909 C4.04900881,10.3336871 3.3996324,10.1543714 2.819,9.83159087 L2.819,9.88359087 C2.81941319,11.8746267 4.22251442,13.589714 6.174,13.9845909 C5.55761503,14.1516278 4.91130669,14.176249 4.284,14.0565909 C4.83112698,15.7607739 6.40145142,16.9283686 8.191,16.9615909 C6.43894158,18.3376103 4.21174,18.9606943 2,18.6935909 C3.91169779,19.9230237 6.13709682,20.5757148 8.41,20.573596 C16.103,20.573596 20.31,14.2005909 20.31,8.67359087 C20.31,8.49359087 20.305,8.31159087 20.297,8.13359087 C21.1158641,7.54175853 21.8225987,6.80861026 22.384,5.96859087 L22.383,5.96759087 Z" id="Path"></path>
            </g>
        </g>
    </g>
</svg>